mtllib material.mtl
o Default
v 0 0 12
v 0 6 0
v 0 6 12
v 0 0 0
v 6 6 12
v 6 6 0
v 6 0 0
v 6 0 12
vt 0.9599999785423279 1
vt 0.47999998927116394 0.6000000238418579
vt 0.9599999785423279 0.6000000238418579
vt 0.47999998927116394 1
vt 0.9599999785423279 0.20000000298023224
vt 0.47999998927116394 0.20000000298023224
vt 0 0.6000000238418579
vt 0 0.20000000298023224
vn 1 0 0
vn 0 -1 0
vn 0 1 0
vn -1 0 0
g Hallway2
usemtl 3
f 1/1/1 2/2/1 3/3/1
f 1/1/1 4/4/1 2/2/1
f 2/5/2 5/2/2 3/6/2
f 2/5/2 6/3/2 5/2/2
f 1/7/3 7/6/3 4/2/3
f 1/7/3 8/8/3 7/6/3
f 7/1/4 5/2/4 6/3/4
f 7/1/4 8/4/4 5/2/4
f 1/1/1 2/2/1 3/3/1
f 1/1/1 4/4/1 2/2/1
