mtllib material.mtl
o Default
v 0 0 -5
v 6 0 0
v 0 0 0
v 6 0 -5
v 6 -6 0
v 0 -6 0
v 6 -6 -5
v 0 -6 -5
v 0 0 -1
v 0 -6 -1
vt 0.20000000298023224 0.20000000298023224
vt 0 0.6000000238418579
vt 0 0.20000000298023224
vt 0.20000000298023224 0.6000000238418579
vt 0.47999998927116394 1
vt 0.23999999463558197 0.6000000238418579
vt 0.47999998927116394 0.6000000238418579
vt 0.23999999463558197 1
vt 0.6800000071525574 1
vt 0.6800000071525574 0.6000000238418579
vt 0 1
vt 0.20000000298023224 1
vn 0 -1 0
vn 0 0 -1
vn -1 0 0
vn 0 1 0
vn 1 0 0
g HallwayEnd
usemtl 4
f 1/1/1 2/2/1 3/3/1
f 1/1/1 4/4/1 2/2/1
f 5/5/2 3/6/2 2/7/2
f 5/5/2 6/8/2 3/6/2
f 7/9/3 2/7/3 4/10/3
f 7/9/3 5/5/3 2/7/3
f 6/4/4 7/11/4 8/2/4
f 6/4/4 5/12/4 7/11/4
f 6/8/5 9/4/5 3/6/5
f 6/8/5 10/12/5 9/4/5
