mtllib material.mtl
o Default
v 1.875 1.375 4.821428298950195
v 2.875 1.375 4.821428298950195
v 1.5 0.375 5.821428298950195
v 3.5 0.375 5.821428298950195
v 2.875 1.375 0.8214287757873535
v 3.5 0.375 4.8214287757873535
v 3.5 0.375 0.8214287757873535
v 1.875 1.375 0.8214282989501953
v 1.5 0.375 0.8214282989501953
v 1.5 0.375 4.8214287757873535
v -8.5 0.375 0.8214287757873535
v -8.5 0.375 5.821428298950195
v 3.5 -2 9.196428298950195
v -8.5 -2 9.196428298950195
v -8.5 -3 9.821428298950195
v 3.5 -3 9.821428298950195
v 3.5 -6 5.821428298950195
v -8.5 -6 5.821428298950195
v 3.5 -7 5.821428298950195
v -8.5 -7 5.821428298950195
v 3.5 -5.625 5.821428298950195
v -8.5 -5.625 5.821428298950195
v -8.5 -5.625 0.8214282989501953
v 3.5 -5.625 0.8214282989501953
v -8.5 -7 9.821428298950195
v 3.5 -7 9.821428298950195
vt 0.9599999785423279 0.2666666805744171
vt 0.9200000166893005 0.2666666805744171
vt 0.9599999785423279 0.3333333432674408
vt 0.9200000166893005 0.3333333432674408
vt 0.9599999785423279 0
vt 1 0
vt 1 0.2666666805744171
vt 0.9200000166893005 0
vt 0.8799999952316284 0.2666666805744171
vt 0.8799999952316284 0
vt 0.9800000190734863 0.30000001192092896
vt 0.8799999952316284 0.3333333432674408
vt 0.47999998927116394 0
vt 0.47999998927116394 0.3333333432674408
vt 0.9599999785423279 0.6000000238418579
vt 0.47999998927116394 0.6000000238418579
vt 0 1
vt 0.47999998927116394 1
vt 0 0.9333333373069763
vt 0.47999998927116394 0.9333333373069763
vt 0.47999998927116394 0.36666667461395264
vt 0 0.36666667461395264
vt 0.47999998927116394 0.4000000059604645
vt 0 0.4000000059604645
vt 0 0.3333333432674408
vt 0 0
vt 0 0.6666666865348816
vt 0.47999998927116394 0.6666666865348816
vn 0 -0.70710678 -0.70710678
vn -0.8479983 -0.52999894 0
vn 0.93632918 -0.35112344 0
vn 0 -1 0
vn 0 -0.81780642 -0.57549341
vn 0 -0.52999894 -0.8479983
vn 0 0 1
vn 0 1 0
vn 0 0 -1
g Platform2
usemtl 1
f 1/1/1 2/2/1 3/3/1
f 2/2/1 4/4/1 3/3/1
f 2/5/2 5/1/2 6/6/2
f 5/1/2 7/7/2 6/6/2
f 8/2/3 1/8/3 9/9/3
f 1/8/3 10/10/3 9/9/3
f 2/1/2 6/3/2 4/11/2
f 1/9/3 3/12/3 10/4/3
f 5/8/4 2/2/4 8/5/4
f 2/2/4 1/1/4 8/5/4
f 11/10/4 9/13/4 12/12/4
f 9/13/4 3/14/4 12/12/4
f 12/14/5 13/15/5 14/16/5
f 12/14/5 4/3/5 13/15/5
f 14/17/6 13/18/6 15/19/6
f 13/18/6 16/20/6 15/19/6
f 17/21/7 18/22/7 19/23/7
f 18/22/7 20/24/7 19/23/7
f 21/14/7 22/25/7 17/21/7
f 22/25/7 18/22/7 17/21/7
f 22/25/8 21/14/8 23/26/8
f 21/14/8 24/13/8 23/26/8
f 15/19/9 16/20/9 25/27/9
f 16/20/9 26/28/9 25/27/9
f 20/24/8 25/27/8 19/23/8
f 25/27/8 26/28/8 19/23/8
