mtllib material.mtl
o Default
v -8.5 -3 -8.25
v 3.5 -2 -7.625
v -8.5 -2 -7.625
v 3.5 -3 -8.25
v -8.5 -5.625 0.75
v 3.5 -5.625 -4.25
v -8.5 -5.625 -4.25
v 3.5 -5.625 0.75
v 3.5 -6 -4.25
v -8.5 -6 -4.25
v 3.5 -7 -4.25
v -8.5 -7 -8.25
v -8.5 -7 -4.25
v 3.5 -7 -8.25
v 1.875 1.375 0.75
v 2.875 1.375 -3.25
v 2.875 1.375 0.75
v 1.875 1.375 -3.25
v -8.5 0.375 -4.25
v 3.5 0.375 -4.25
v 1.5 0.375 0.75
v -8.5 0.375 0.75
v 1.5 0.375 -4.25
v 1.5 0.375 -3.25
v 3.5 0.375 -3.25
v 3.5 0.375 0.75
vt 0 0.9333333373069763
vt 0.47999998927116394 1
vt 0 1
vt 0.47999998927116394 0.9333333373069763
vt 0 0
vt 0.47999998927116394 0.3333333432674408
vt 0 0.3333333432674408
vt 0.47999998927116394 0
vt 0.47999998927116394 0.36666667461395264
vt 0 0.36666667461395264
vt 0.47999998927116394 0.4000000059604645
vt 0 0.6666666865348816
vt 0 0.4000000059604645
vt 0.47999998927116394 0.6666666865348816
vt 0.9599999785423279 0
vt 0.9200000166893005 0.2666666805744171
vt 0.9200000166893005 0
vt 0.9599999785423279 0.2666666805744171
vt 0.47999998927116394 0.6000000238418579
vt 0.9599999785423279 0.6000000238418579
vt 0.9599999785423279 0.3333333432674408
vt 0.8799999952316284 0.3333333432674408
vt 0.8799999952316284 0
vt 0.9200000166893005 0.3333333432674408
vt 0.8799999952316284 0.2666666805744171
vt 0.9800000190734863 0.30000001192092896
vt 1 0
vt 1 0.2666666805744171
vn 0 -0.52999894 0.8479983
vn 0 1 0
vn 0 0 -1
vn 0 -1 0
vn 0 -0.81780642 0.57549341
vn 0.93632918 -0.35112344 0
vn -0.8479983 -0.52999894 0
vn 0 0 1
vn 0 -0.70710678 0.70710678
g Platform1
usemtl 1
f 1/1/1 2/2/1 3/3/1
f 1/1/1 4/4/1 2/2/1
f 5/5/2 6/6/2 7/7/2
f 5/5/2 8/8/2 6/6/2
f 9/9/3 7/7/3 6/6/3
f 9/9/3 10/10/3 7/7/3
f 11/11/2 12/12/2 13/13/2
f 11/11/2 14/14/2 12/12/2
f 15/15/4 16/16/4 17/17/4
f 15/15/4 18/18/4 16/16/4
f 3/19/5 2/20/5 19/6/5
f 2/20/5 20/21/5 19/6/5
f 11/11/3 10/10/3 9/9/3
f 11/11/3 13/13/3 10/10/3
f 19/22/4 21/8/4 22/23/4
f 19/22/4 23/6/4 21/8/4
f 24/24/6 23/22/6 18/25/6
f 20/26/7 25/21/7 16/18/7
f 21/25/6 18/17/6 15/16/6
f 21/25/6 24/23/6 18/17/6
f 25/27/7 17/18/7 16/15/7
f 25/27/7 26/28/7 17/18/7
f 12/12/8 4/4/8 1/1/8
f 12/12/8 14/14/8 4/4/8
f 23/21/9 16/16/9 18/18/9
f 23/21/9 20/24/9 16/16/9
