mtllib material.mtl
o Default
v -5 -15.375 -8
v -6 -15 -8
v -5 -15 -8
v -6 -15.375 -8
v -6 -8 -8
v -5 -8 -8
v -7 -15.375 -8
v -7 -15 -8
v -7 -8 -8
v -7 -10.375 -11.375
v -5 -10.375 -11.375
v -8 -8 -8
v -7 -8 -7
v -8 -8 -7
v -8 -10.375 -11.375
v -5 -15.375 -12
v -7 -15.375 -12
v -8 -11.375 -12
v -5 -11.375 -12
v -8 -15.375 -12
v -8 -15.375 -8
v -8 -14.375 -8
v -7 -14.375 -8
v -7.5 -13.5 -3
v -7 -13.5 -5
v -7.5 -13.5 -5
v -7 -13.5 -3
v -7 -13 -5
v -7 -13 -3
v -6.5 -13 -3
v -6.5 -12.5 -5
v -6.5 -13 -5
v -6.5 -12.5 -3
v -6 -12.5 -5
v -6 -12.5 -3
v -6 -12 -5
v -6 -12 -3
v -5.5 -12 -3
v -5.5 -11.5 -5
v -5.5 -12 -5
v -5.5 -11.5 -3
v -5 -11.5 -3
v -5 -11 -5
v -5 -11.5 -5
v -5 -11 -3
v -4.5 -11 -5
v -4.5 -11 -3
v -4.5 -10.5 -5
v -4.5 -10.5 -3
v -4 -10.5 -5
v -4 -10.5 -3
v -4 -10 -5
v -4 -10 -3
v -8 -14 -3
v -7.5 -14 -5
v -8 -14 -5
v -7.5 -14 -3
v -3.5 -10 -3
v -3.5 -9.5 -5
v -3.5 -10 -5
v -3.5 -9.5 -3
v -2 -8 -3
v -1.5 -8 -5
v -2 -8 -5
v -1.5 -8 -3
v -2 -8.5 -3
v -2 -8.5 -5
v -2.5 -8.5 -3
v -2.5 -8.5 -5
v -3 -9 -3
v -2.5 -9 -5
v -3 -9 -5
v -2.5 -9 -3
v -3 -9.5 -3
v -3 -9.5 -5
v 0 -6.5 -3
v 0 -6 -5
v 0 -6.5 -5
v 0 -6 -3
v -0.5 -6.5 -3
v -0.5 -6.5 -5
v -0.5 -7 -3
v -0.5 -7 -5
v -1 -7 -3
v -1 -7 -5
v -1.5 -7.5 -3
v -1 -7.5 -5
v -1.5 -7.5 -5
v -1 -7.5 -3
v -1 -0.5 -5
v -2 -0.5 -5
v -1 -8.5 -5
v 0 0 -5
v -1 0 -5
v 0 -7 -5
v -8 -14.5 -5
v -7 -3.5 -5
v -8 -3.5 -5
v -7 -14.5 -5
v -6 -3 -5
v -7 -3 -5
v -6 -13 -5
v -5 -2.5 -5
v -6 -2.5 -5
v -5 -12.5 -5
v -4 -2 -5
v -5 -2 -5
v -4 -11 -5
v -3 -1.5 -5
v -4 -1.5 -5
v -3 -10.5 -5
v -2 -1 -5
v -3 -1 -5
v -2 -9 -5
v 0 0 -3
v -1 0 -3
v -1 -0.5 -3
v -2 -0.5 -3
v -2 -1 -3
v -3 -1 -3
v -3 -1.5 -3
v -4 -1.5 -3
v -4 -2 -3
v -5 -2 -3
v -5 -2.5 -3
v -6 -2.5 -3
v -6 -3 -3
v -7 -3 -3
v -7 -3.5 -3
v -8 -3.5 -3
v -7.9375 -7.9375 -3
v -8 -7.5 -5
v -8 -7.5 -3
v -7.9375 -7.9375 -5
v -8 -14 -7
v -8 -8 -5
v -7 -14 -7
v -7 -14 -8
v -8 -14 -8
vt 0.800000011920929 0.6000000238418579
vt 0.8399999737739563 0.6666666865348816
vt 0.800000011920929 0.6666666865348816
vt 0.8399999737739563 0.6000000238418579
vt 0.8399999737739563 0.5333333611488342
vt 0.8799999952316284 1
vt 0.8399999737739563 1
vt 0.8799999952316284 0.5333333611488342
vt 0.800000011920929 0.5333333611488342
vt 0.800000011920929 1
vt 0.7599999904632568 0.5333333611488342
vt 0.7599999904632568 1
vt 0.7200000286102295 1
vt 0.6399999856948853 0.7333333492279053
vt 0.7200000286102295 0.7333333492279053
vt 0.6399999856948853 1
vt 0.6800000071525574 0.46666666865348816
vt 0.6399999856948853 0.4000000059604645
vt 0.6800000071525574 0.4000000059604645
vt 0.6399999856948853 0.46666666865348816
vt 0.6000000238418579 0.7333333492279053
vt 0.6000000238418579 1
vt 0.20000000298023224 0.3333333432674408
vt 0.2800000011920929 0.6000000238418579
vt 0.20000000298023224 0.6000000238418579
vt 0.2800000011920929 0.3333333432674408
vt 0.20000000298023224 0.2666666805744171
vt 0.3199999928474426 0.3333333432674408
vt 0.3199999928474426 0.2666666805744171
vt 0.20000000298023224 0
vt 0.3199999928474426 0
vt 0.1599999964237213 0.3333333432674408
vt 0.1599999964237213 0.6000000238418579
vt 0.1599999964237213 0.30000001192092896
vt 0.20000000298023224 0.30000001192092896
vt 0.019999999552965164 0.6666666865348816
vt 0.03999999910593033 0.800000011920929
vt 0.019999999552965164 0.800000011920929
vt 0.03999999910593033 0.6666666865348816
vt 0.05999999865889549 0.800000011920929
vt 0.05999999865889549 0.6666666865348816
vt 0.07999999821186066 0.800000011920929
vt 0.07999999821186066 0.6666666865348816
vt 0.10000000149011612 0.800000011920929
vt 0.10000000149011612 0.6666666865348816
vt 0.11999999731779099 0.6666666865348816
vt 0.14000000059604645 0.800000011920929
vt 0.11999999731779099 0.800000011920929
vt 0.14000000059604645 0.6666666865348816
vt 0.1599999964237213 0.6666666865348816
vt 0.18000000715255737 0.800000011920929
vt 0.1599999964237213 0.800000011920929
vt 0.18000000715255737 0.6666666865348816
vt 0.20000000298023224 0.800000011920929
vt 0.20000000298023224 0.6666666865348816
vt 0.2200000137090683 0.800000011920929
vt 0.2200000137090683 0.6666666865348816
vt 0.24000000953674316 0.800000011920929
vt 0.24000000953674316 0.6666666865348816
vt 0.2600000202655792 0.800000011920929
vt 0.2600000202655792 0.6666666865348816
vt 0.25999999046325684 0.6666666865348816
vt 0.2800000011920929 0.800000011920929
vt 0.25999999046325684 0.800000011920929
vt 0.2800000011920929 0.6666666865348816
vt 0 0.6666666865348816
vt 0 0.800000011920929
vt 0.5600000023841858 0
vt 0.6000000238418579 0.5333333611488342
vt 0.5600000023841858 0.5333333611488342
vt 0.6000000238418579 0
vt 0.6000000238418579 0.46666666865348816
vt 0.6399999856948853 0
vt 0.36000001430511475 0.7333333492279053
vt 0.3199999928474426 0.7333333492279053
vt 0.36000001430511475 0
vt 0.4000000059604645 0.6666666865348816
vt 0.36000001430511475 0.6666666865348816
vt 0.4000000059604645 0
vt 0.4399999976158142 0.6666666865348816
vt 0.4399999976158142 0
vt 0.47999998927116394 0.6000000238418579
vt 0.4399999976158142 0.6000000238418579
vt 0.47999998927116394 0
vt 0.5199999809265137 0.6000000238418579
vt 0.5199999809265137 0
vt 0.5199999809265137 0.5333333611488342
vt 0.36000001430511475 0.8666666746139526
vt 0.3199999928474426 0.8666666746139526
vt 0.4399999976158142 0.800000011920929
vt 0.4000000059604645 0.800000011920929
vt 0.5199999809265137 0.7333333492279053
vt 0.47999998927116394 0.7333333492279053
vt 0.6000000238418579 0.6666666865348816
vt 0.5600000023841858 0.6666666865348816
vt 0.6800000071525574 0.6000000238418579
vt 0.6399999856948853 0.6000000238418579
vt 0.7200000286102295 0.4000000059604645
vt 0.7200000286102295 0.5333333611488342
vt 0.7599999904632568 0.4000000059604645
vt 0.800000011920929 0.4000000059604645
vt 0.8399999737739563 0.4000000059604645
vt 0.8799999952316284 0.4000000059604645
vt 0.9200000166893005 0.5333333611488342
vt 0.9200000166893005 0.4000000059604645
vt 0.6800000071525574 0.5333333611488342
vt 0.6000000238418579 0.6000000238418579
vt 0.5199999809265137 0.6666666865348816
vt 0.4399999976158142 0.7333333492279053
vt 0.36000001430511475 0.800000011920929
vt 0.6000000238418579 0.699999988079071
vt 0.5199999809265137 0.699999988079071
vt 0.5199999809265137 1
vt 0 0.20000000298023224
vt 0.07999999821186066 0.20000000298023224
vt 0.11999999731779099 0.20000000298023224
vt 0.1599999964237213 0.20000000298023224
vt 0.1599999964237213 0.2666666805744171
vt 0.20000000298023224 0.20000000298023224
vn 0 0 -1
vn 0 0 1
vn 0 -0.81780642 0.57549341
vn 0 -1 0
vn 0 1 0
vn 0 -0.52999894 0.8479983
vn -1 0 0
vn 1 0 0
vn 0.98994949 0.14142136 0
g Stairs1
usemtl 2
f 1/1/1 2/2/1 3/3/1
f 1/1/1 4/4/1 2/2/1
f 3/5/1 5/6/1 6/7/1
f 3/5/1 2/8/1 5/6/1
f 7/4/2 2/9/2 8/5/2
f 7/4/2 4/1/2 2/9/2
f 2/10/1 9/11/1 5/9/1
f 2/10/1 8/12/1 9/11/1
f 10/13/3 6/14/3 9/15/3
f 10/13/3 11/16/3 6/14/3
f 12/17/4 13/18/4 14/19/4
f 12/17/4 9/20/4 13/18/4
f 15/16/3 9/21/3 12/14/3
f 15/16/3 10/22/3 9/21/3
f 7/23/5 16/24/5 17/25/5
f 7/23/5 1/26/5 16/24/5
f 18/27/6 11/28/6 15/23/6
f 18/27/6 19/29/6 11/28/6
f 20/29/2 19/30/2 18/31/2
f 20/29/2 16/27/2 19/30/2
f 21/25/5 17/32/5 20/23/5
f 21/25/5 7/33/5 17/32/5
f 7/23/1 22/34/1 23/35/1
f 7/23/1 21/32/1 22/34/1
f 24/36/5 25/37/5 26/38/5
f 24/36/5 27/39/5 25/37/5
f 27/39/7 28/40/7 25/37/7
f 27/39/7 29/41/7 28/40/7
f 30/39/7 31/40/7 32/37/7
f 30/39/7 33/41/7 31/40/7
f 29/36/5 32/37/5 28/38/5
f 29/36/5 30/39/5 32/37/5
f 33/41/5 34/42/5 31/40/5
f 33/41/5 35/43/5 34/42/5
f 35/43/7 36/44/7 34/42/7
f 35/43/7 37/45/7 36/44/7
f 38/46/7 39/47/7 40/48/7
f 38/46/7 41/49/7 39/47/7
f 37/45/5 40/48/5 36/44/5
f 37/45/5 38/46/5 40/48/5
f 42/50/7 43/51/7 44/52/7
f 42/50/7 45/53/7 43/51/7
f 41/49/5 44/52/5 39/47/5
f 41/49/5 42/50/5 44/52/5
f 45/53/5 46/54/5 43/51/5
f 45/53/5 47/55/5 46/54/5
f 47/55/7 48/56/7 46/54/7
f 47/55/7 49/57/7 48/56/7
f 49/57/5 50/58/5 48/56/5
f 49/57/5 51/59/5 50/58/5
f 51/59/7 52/60/7 50/58/7
f 51/59/7 53/61/7 52/60/7
f 54/62/5 55/63/5 56/64/5
f 54/62/5 57/65/5 55/63/5
f 58/66/7 59/38/7 60/67/7
f 58/66/7 61/36/7 59/38/7
f 53/62/5 60/63/5 52/64/5
f 53/62/5 58/65/5 60/63/5
f 62/45/5 63/48/5 64/44/5
f 62/45/5 65/46/5 63/48/5
f 66/43/7 64/44/7 67/42/7
f 66/43/7 62/45/7 64/44/7
f 68/41/5 67/42/5 69/40/5
f 68/41/5 66/43/5 67/42/5
f 70/36/5 71/37/5 72/38/5
f 70/36/5 73/39/5 71/37/5
f 73/39/7 69/40/7 71/37/7
f 73/39/7 68/41/7 69/40/7
f 74/39/7 72/40/7 75/37/7
f 74/39/7 70/41/7 72/40/7
f 61/36/5 75/37/5 59/38/5
f 61/36/5 74/39/5 75/37/5
f 76/59/7 77/60/7 78/58/7
f 76/59/7 79/61/7 77/60/7
f 80/57/5 78/58/5 81/56/5
f 80/57/5 76/59/5 78/58/5
f 82/55/7 81/56/7 83/54/7
f 82/55/7 80/57/7 81/56/7
f 84/53/5 83/54/5 85/51/5
f 84/53/5 82/55/5 83/54/5
f 86/49/5 87/52/5 88/47/5
f 86/49/5 89/50/5 87/52/5
f 89/50/7 85/51/7 87/52/7
f 89/50/7 84/53/7 85/51/7
f 65/46/7 88/47/7 63/48/7
f 65/46/7 86/49/7 88/47/7
f 67/68/2 90/69/2 91/70/2
f 67/68/2 92/71/2 90/69/2
f 85/71/2 93/20/2 94/72/2
f 85/71/2 95/73/2 93/20/2
f 96/31/2 97/74/2 98/75/2
f 96/31/2 99/76/2 97/74/2
f 28/76/2 100/77/2 101/78/2
f 28/76/2 102/79/2 100/77/2
f 34/79/2 103/80/2 104/77/2
f 34/79/2 105/81/2 103/80/2
f 43/81/2 106/82/2 107/83/2
f 43/81/2 108/84/2 106/82/2
f 50/84/2 109/85/2 110/82/2
f 50/84/2 111/86/2 109/85/2
f 72/86/2 112/70/2 113/87/2
f 72/86/2 114/68/2 112/70/2
f 94/75/4 115/88/4 116/89/4
f 94/75/4 93/74/4 115/88/4
f 91/77/4 117/90/4 118/91/4
f 91/77/4 90/80/4 117/90/4
f 113/82/4 119/92/4 120/93/4
f 113/82/4 112/85/4 119/92/4
f 110/70/4 121/94/4 122/95/4
f 110/70/4 109/69/4 121/94/4
f 107/20/4 123/96/4 124/97/4
f 107/20/4 106/17/4 123/96/4
f 104/98/4 125/11/4 126/99/4
f 104/98/4 103/100/4 125/11/4
f 101/101/4 127/5/4 128/9/4
f 101/101/4 100/102/4 127/5/4
f 98/103/4 129/104/4 130/8/4
f 98/103/4 97/105/4 129/104/4
f 129/5/8 101/103/8 128/8/8
f 129/5/8 97/102/8 101/103/8
f 127/11/8 104/101/8 126/9/8
f 127/11/8 100/100/8 104/101/8
f 125/106/8 107/98/8 124/99/8
f 125/106/8 103/19/8 107/98/8
f 123/107/8 110/20/8 122/97/8
f 123/107/8 106/72/8 110/20/8
f 121/108/8 113/70/8 120/95/8
f 121/108/8 109/87/8 113/70/8
f 119/109/8 91/82/8 118/93/8
f 119/109/8 112/83/8 91/82/8
f 117/110/8 94/77/8 116/91/8
f 117/110/8 90/78/8 94/77/8
f 131/108/9 132/111/9 133/112/9
f 131/108/9 134/94/9 132/111/9
f 133/92/8 98/22/8 130/113/8
f 133/92/8 132/21/8 98/22/8
f 135/114/7 136/43/7 14/66/7
f 135/114/7 56/115/7 136/43/7
f 137/115/1 14/46/1 13/43/1
f 137/115/1 135/116/1 14/46/1
f 138/116/7 13/50/7 9/46/7
f 138/116/7 137/117/7 13/50/7
f 57/66/7 26/38/7 55/67/7
f 57/66/7 24/36/7 26/38/7
f 23/35/1 139/118/1 138/27/1
f 23/35/1 22/34/1 139/118/1
f 135/117/5 138/27/5 139/118/5
f 135/117/5 137/119/5 138/27/5
