mtllib material.mtl
o Default
v 0 -7.375 -14
v 12 -3.375 -14
v 0 -3.375 -14
v 12 -7.375 -14
v 0 -7.375 -10
v 12 -7.375 -10
v 0 0 -10
v 11.9375 -0.0625 -10
v -0.0625 -3.4375 -14
v 11.9375 -2.4375 -13.4375
v -0.0625 -2.4375 -13.4375
v 11.9375 -3.4375 -14
vt 0.47999998927116394 0.4000000059604645
vt 0.9599999785423279 0.6666666865348816
vt 0.47999998927116394 0.6666666865348816
vt 0.9599999785423279 0.4000000059604645
vt 0 0.7333333492279053
vt 0.47999998927116394 1
vt 0 1
vt 0.47999998927116394 0.7333333492279053
vt 0 0.20000000298023224
vt 0.47999998927116394 0.20000000298023224
vt 0.9599999785423279 0.7333333492279053
vt 0.9599999785423279 1
vn 0 0 1
vn 0 1 0
vn 0 0 -1
vn 0 -0.49026124 0.87157554
vn -0.00427062 -0.81568881 0.57847517
vn 0 -0.82273034 0.56843187
g Tunnel1
usemtl 5
f 1/1/1 2/2/1 3/3/1
f 1/1/1 4/4/1 2/2/1
f 5/5/2 4/6/2 1/7/2
f 5/5/2 6/8/2 4/6/2
f 6/9/3 7/8/3 8/5/3
f 6/9/3 5/10/3 7/8/3
f 9/3/4 10/11/4 11/8/4
f 9/3/4 12/2/4 10/11/4
f 11/6/5 8/11/5 7/8/5
f 11/6/6 10/12/6 8/11/6
